<svg width="84" height="40" viewBox="0 0 84 40" fill="none" xmlns="http://www.w3.org/2000/svg">
<path d="M11.927 35.1372C12.423 35.1372 12.8245 35.2975 13.1281 35.6163C13.4317 35.9351 13.5852 36.3669 13.5852 36.9101V39.6765H12.9999V36.9101C12.9999 36.5255 12.9004 36.2286 12.703 36.0194C12.5056 35.8103 12.2425 35.704 11.9186 35.704C11.5525 35.704 11.2556 35.8271 11.0279 36.0717C10.8002 36.3163 10.6872 36.6992 10.6872 37.2205V39.6765H10.1018V36.9101C10.1018 36.5204 10.0091 36.2219 9.82184 36.0144C9.63628 35.8069 9.38326 35.704 9.06444 35.704C8.7102 35.704 8.40824 35.8288 8.16027 36.0768C7.9123 36.3248 7.78748 36.706 7.78748 37.2205V39.6765H7.20215V35.2435H7.78748V35.8912C8.1063 35.3885 8.55838 35.1372 9.14372 35.1372C9.78135 35.1372 10.2317 35.4054 10.4915 35.9435C10.8103 35.4054 11.2894 35.1372 11.9287 35.1372H11.927Z" fill="#2054D2"/>
<path d="M15.3137 34.1792C15.231 34.2618 15.1298 34.304 15.0117 34.304C14.8937 34.304 14.7924 34.2635 14.7098 34.1792C14.6271 34.0965 14.585 33.9953 14.585 33.8772C14.585 33.7591 14.6254 33.6579 14.7098 33.5753C14.7924 33.4926 14.8937 33.4504 15.0117 33.4504C15.1298 33.4504 15.231 33.4926 15.3137 33.5753C15.3963 33.6579 15.4385 33.7591 15.4385 33.8772C15.4385 33.9953 15.3963 34.0965 15.3137 34.1792ZM14.7199 39.6766V35.2436H15.3053V39.6766H14.7199Z" fill="#2054D2"/>
<path d="M18.6115 39.7828C17.9435 39.7828 17.3885 39.5601 16.9449 39.1131C16.5012 38.6661 16.2803 38.1162 16.2803 37.46C16.2803 36.8038 16.5012 36.2522 16.9449 35.8069C17.3885 35.3599 17.9435 35.1372 18.6115 35.1372C19.0484 35.1372 19.4414 35.2418 19.7906 35.4526C20.1398 35.6618 20.3928 35.9452 20.553 36.2995L20.074 36.5744C19.9559 36.3079 19.7653 36.097 19.5021 35.9402C19.239 35.7833 18.9421 35.7057 18.6115 35.7057C18.1206 35.7057 17.7073 35.8761 17.37 36.2151C17.0326 36.5559 16.8639 36.9708 16.8639 37.46C16.8639 37.9492 17.0326 38.3658 17.37 38.7049C17.7073 39.0456 18.1206 39.2143 18.6115 39.2143C18.9421 39.2143 19.2373 39.1367 19.4988 38.9799C19.7585 38.823 19.9627 38.6121 20.1111 38.3456L20.5986 38.629C20.4147 38.9832 20.1466 39.2649 19.7923 39.4707C19.4381 39.6782 19.045 39.7811 18.6132 39.7811L18.6115 39.7828Z" fill="#2054D2"/>
<path d="M22.0275 35.9787C22.2991 35.4406 22.7663 35.1724 23.4275 35.1724V35.7392C23.0261 35.7392 22.6921 35.8572 22.4256 36.0934C22.159 36.3295 22.0258 36.7023 22.0258 37.2101V39.6746H21.4404V35.2415H22.0258V35.977L22.0275 35.9787Z" fill="#2054D2"/>
<path d="M27.6797 39.1131C27.2276 39.5601 26.676 39.7828 26.0266 39.7828C25.3771 39.7828 24.8255 39.5601 24.3734 39.1131C23.9214 38.6661 23.6953 38.1162 23.6953 37.46C23.6953 36.8038 23.9214 36.2522 24.3734 35.8069C24.8255 35.3599 25.3771 35.1372 26.0266 35.1372C26.676 35.1372 27.2276 35.3599 27.6797 35.8069C28.1318 36.2539 28.3578 36.8038 28.3578 37.46C28.3578 38.1162 28.1318 38.6678 27.6797 39.1131ZM24.785 38.7066C25.1224 39.0473 25.5357 39.216 26.0266 39.216C26.5174 39.216 26.9307 39.0456 27.2681 38.7066C27.6054 38.3675 27.7741 37.9509 27.7741 37.4617C27.7741 36.9725 27.6054 36.5558 27.2681 36.2168C26.9307 35.8777 26.5174 35.7074 26.0266 35.7074C25.5357 35.7074 25.1224 35.8777 24.785 36.2168C24.4476 36.5575 24.279 36.9725 24.279 37.4617C24.279 37.9509 24.4476 38.3675 24.785 38.7066Z" fill="#2054D2"/>
<path d="M32.4879 35.2432V39.6762H31.9025V35.81H30.0942V39.6762H29.5089V35.81H28.7549V35.2432H29.5089V35.0661C29.5089 33.9308 30.1297 33.364 31.3712 33.364C31.6192 33.364 31.9026 33.3994 32.2231 33.4703V34.0016C31.9447 33.9544 31.6613 33.9308 31.3712 33.9308C30.9276 33.9308 30.6037 34.0168 30.3996 34.1872C30.1955 34.3593 30.0942 34.6511 30.0942 35.0644V35.2415H32.4879V35.2432Z" fill="#2054D2"/>
<path d="M35.805 35.1369C36.3431 35.1369 36.7666 35.3006 37.0769 35.6295C37.3873 35.9584 37.5425 36.3987 37.5425 36.9554V39.6779H36.9572V36.9554C36.9572 36.559 36.8526 36.252 36.6417 36.0327C36.4325 35.8134 36.134 35.7037 35.7511 35.7037C35.326 35.7037 34.9802 35.8387 34.7137 36.1069C34.4471 36.3768 34.3138 36.7917 34.3138 37.3518V39.6746H33.7285V35.2415H34.3138V35.9331C34.6445 35.4018 35.1421 35.1353 35.8034 35.1353L35.805 35.1369Z" fill="#2054D2"/>
<path d="M42.4899 35.2435H43.0753V39.6765H42.4899V38.8078C42.0817 39.4572 41.4846 39.7828 40.6985 39.7828C40.0659 39.7828 39.5261 39.5584 39.0808 39.1097C38.6338 38.661 38.4111 38.1111 38.4111 37.46C38.4111 36.8089 38.6338 36.2606 39.0808 35.8103C39.5261 35.3616 40.0659 35.1372 40.6985 35.1372C41.4846 35.1372 42.0817 35.4628 42.4899 36.1122V35.2435ZM39.5025 38.7066C39.8399 39.0473 40.2532 39.216 40.7441 39.216C41.2349 39.216 41.6482 39.0456 41.9856 38.7066C42.3229 38.3675 42.4916 37.9509 42.4916 37.4617C42.4916 36.9725 42.3229 36.5558 41.9856 36.2168C41.6482 35.8777 41.2349 35.7074 40.7441 35.7074C40.2532 35.7074 39.8399 35.8777 39.5025 36.2168C39.1652 36.5575 38.9965 36.9725 38.9965 37.4617C38.9965 37.9509 39.1652 38.3675 39.5025 38.7066Z" fill="#2054D2"/>
<path d="M46.39 35.1369C46.9281 35.1369 47.3515 35.3006 47.6619 35.6295C47.9723 35.9584 48.1275 36.3987 48.1275 36.9554V39.6779H47.5421V36.9554C47.5421 36.559 47.4375 36.252 47.2267 36.0327C47.0175 35.8134 46.7189 35.7037 46.336 35.7037C45.9109 35.7037 45.5651 35.8387 45.2986 36.1069C45.0321 36.3768 44.8988 36.7917 44.8988 37.3518V39.6746H44.3135V35.2415H44.8988V35.9331C45.2294 35.4018 45.7271 35.1353 46.3883 35.1353L46.39 35.1369Z" fill="#2054D2"/>
<path d="M51.3312 39.7828C50.6632 39.7828 50.1083 39.5601 49.6646 39.1131C49.221 38.6661 49 38.1162 49 37.46C49 36.8038 49.221 36.2522 49.6646 35.8069C50.1083 35.3599 50.6632 35.1372 51.3312 35.1372C51.7681 35.1372 52.1612 35.2418 52.5104 35.4526C52.8595 35.6618 53.1126 35.9452 53.2728 36.2995L52.7937 36.5744C52.6757 36.3079 52.4851 36.097 52.2219 35.9402C51.9588 35.7833 51.6619 35.7057 51.3312 35.7057C50.8404 35.7057 50.4271 35.8761 50.0897 36.2151C49.7523 36.5559 49.5836 36.9708 49.5836 37.46C49.5836 37.9492 49.7523 38.3658 50.0897 38.7049C50.4271 39.0456 50.8404 39.2143 51.3312 39.2143C51.6619 39.2143 51.9571 39.1367 52.2185 38.9799C52.4783 38.823 52.6824 38.6121 52.8308 38.3456L53.3184 38.629C53.1345 38.9832 52.8663 39.2649 52.512 39.4707C52.1578 39.6782 51.7648 39.7811 51.3329 39.7811L51.3312 39.7828Z" fill="#2054D2"/>
<path d="M56.1625 35.1372C56.8187 35.1372 57.3484 35.37 57.7549 35.8339C58.1598 36.2978 58.3622 36.846 58.3622 37.4786C58.3622 37.5443 58.3554 37.6354 58.3436 37.7535H54.4521C54.5111 38.2022 54.7017 38.5581 55.0239 38.8213C55.3461 39.0844 55.7442 39.216 56.2165 39.216C56.5539 39.216 56.844 39.1469 57.0903 39.0085C57.3349 38.8702 57.5205 38.688 57.6453 38.4637L58.1598 38.7656C57.9641 39.0794 57.6993 39.3273 57.3619 39.5112C57.0245 39.6951 56.6399 39.7862 56.2098 39.7862C55.5131 39.7862 54.9446 39.5669 54.5077 39.13C54.0708 38.6931 53.8516 38.1364 53.8516 37.4634C53.8516 36.7903 54.0675 36.2488 54.4993 35.8052C54.9312 35.3616 55.4861 35.1406 56.1659 35.1406L56.1625 35.1372ZM56.1625 35.704C55.702 35.704 55.3158 35.8423 55.0054 36.1156C54.695 36.3905 54.5094 36.7465 54.4521 37.1834H57.76C57.7009 36.7161 57.5205 36.3534 57.2185 36.092C56.9166 35.8322 56.5657 35.7023 56.1642 35.7023L56.1625 35.704Z" fill="#2054D2"/>
<path d="M63.8836 35.1368C64.5162 35.1368 65.056 35.3612 65.5013 35.8099C65.9467 36.2586 66.171 36.8085 66.171 37.4596C66.171 38.1107 65.9484 38.659 65.5013 39.1094C65.0543 39.5581 64.5162 39.7824 63.8836 39.7824C63.0976 39.7824 62.5004 39.4569 62.0922 38.8074V39.6761H61.5068V33.4702H62.0922V36.1118C62.5004 35.4624 63.0976 35.1368 63.8836 35.1368ZM62.5982 38.7062C62.9356 39.0469 63.3489 39.2156 63.8398 39.2156C64.3306 39.2156 64.7439 39.0453 65.0813 38.7062C65.4187 38.3671 65.5874 37.9505 65.5874 37.4613C65.5874 36.9721 65.4187 36.5555 65.0813 36.2164C64.7439 35.8773 64.3306 35.707 63.8398 35.707C63.3489 35.707 62.9356 35.8773 62.5982 36.2164C62.2609 36.5572 62.0922 36.9721 62.0922 37.4613C62.0922 37.9505 62.2609 38.3671 62.5982 38.7062Z" fill="#2054D2"/>
<path d="M70.9587 35.2435H71.544V39.6765H70.9587V38.8078C70.5505 39.4572 69.9533 39.7828 69.1673 39.7828C68.5347 39.7828 67.9949 39.5584 67.5496 39.1097C67.1025 38.661 66.8799 38.1111 66.8799 37.46C66.8799 36.8089 67.1025 36.2606 67.5496 35.8103C67.9949 35.3616 68.5347 35.1372 69.1673 35.1372C69.9533 35.1372 70.5505 35.4628 70.9587 36.1122V35.2435ZM67.9713 38.7066C68.3086 39.0473 68.7219 39.216 69.2128 39.216C69.7037 39.216 70.1169 39.0456 70.4543 38.7066C70.7917 38.3675 70.9604 37.9509 70.9604 37.4617C70.9604 36.9725 70.7917 36.5558 70.4543 36.2168C70.1169 35.8777 69.7037 35.7074 69.2128 35.7074C68.7219 35.7074 68.3086 35.8777 67.9713 36.2168C67.6339 36.5575 67.4652 36.9725 67.4652 37.4617C67.4652 37.9509 67.6339 38.3675 67.9713 38.7066Z" fill="#2054D2"/>
<path d="M74.8617 35.1369C75.3998 35.1369 75.8232 35.3006 76.1336 35.6295C76.444 35.9584 76.5992 36.3987 76.5992 36.9554V39.6779H76.0138V36.9554C76.0138 36.559 75.9092 36.252 75.6984 36.0327C75.4892 35.8134 75.1906 35.7037 74.8077 35.7037C74.3826 35.7037 74.0368 35.8387 73.7703 36.1069C73.5038 36.3768 73.3705 36.7917 73.3705 37.3518V39.6746H72.7852V35.2415H73.3705V35.9331C73.7011 35.4018 74.1987 35.1353 74.86 35.1353L74.8617 35.1369Z" fill="#2054D2"/>
<path d="M81.3173 39.6761H80.5362L78.3197 37.5372V39.6761H77.7344V33.4702H78.3197V37.2066L80.43 35.2431H81.2278L78.9405 37.3702L81.3173 39.6761Z" fill="#2054D2"/>
<path d="M82.8587 39.6241C82.7642 39.7185 82.6495 39.7658 82.5129 39.7658C82.3762 39.7658 82.2615 39.7185 82.1671 39.6241C82.0726 39.5296 82.0254 39.4149 82.0254 39.2783C82.0254 39.1416 82.0726 39.0269 82.1671 38.9325C82.2615 38.838 82.3762 38.7908 82.5129 38.7908C82.6495 38.7908 82.7642 38.838 82.8587 38.9325C82.9531 39.0269 83.0004 39.1416 83.0004 39.2783C83.0004 39.4149 82.9531 39.5296 82.8587 39.6241Z" fill="#2054D2"/>
<path d="M3.31296 35.2588H2.20975H1.1049H0V36.3637H1.1049H2.20975V37.4686H3.31296V38.5735V39.6767H4.41786V38.5735V37.4686V36.3637V35.2588H3.31296Z" fill="#E4B79F"/>
<path d="M2.20739 37.4685H1.10254V38.5734H2.20739V37.4685Z" fill="#E4B79F"/>
<path d="M1.1049 38.5735H0V39.6784H1.1049V38.5735Z" fill="#E4B79F"/>
<path d="M43.5231 21.2494H28.6493C29.3096 23.7265 31.1618 24.9167 34.1511 24.9167C35.8583 25.0279 37.5092 24.2951 38.5721 22.955L42.6807 25.321C40.7577 28.1202 37.5236 29.7227 34.1334 29.5584C31.223 29.6921 28.3852 28.6259 26.2834 26.6046C24.3056 24.6333 23.2313 21.9323 23.3118 19.1396C23.27 16.4 24.3281 13.7586 26.2463 11.8033C28.208 9.78689 30.9364 8.69975 33.7468 8.8141C36.4494 8.70941 39.0601 9.803 40.8817 11.8033C42.7757 13.8053 43.7985 16.4773 43.7244 19.2314C43.7035 19.9078 43.6358 20.581 43.5231 21.2478M28.5768 17.3067H38.6285C38.2419 14.9343 36.1514 13.2223 33.7501 13.3076C32.5325 13.2577 31.3358 13.6265 30.3565 14.3529C29.4321 15.0938 28.8007 16.1407 28.5784 17.3051" fill="#2054D2"/>
<path d="M51.3737 0.213867H46.2568V29.0272H51.3737V0.213867Z" fill="#2054D2"/>
<path d="M59.8843 0.213867H54.7852V29.0272H59.8843V0.213867Z" fill="#2054D2"/>
<path d="M15.7383 9.36523V9.40227V29.0273H20.7279V9.36523H15.7383Z" fill="#2054D2"/>
<path d="M20.6526 19.1964C20.6622 24.8995 16.0479 29.5299 10.3448 29.5412C4.64172 29.5509 0.0112893 24.9365 1.51506e-05 19.2335C-0.00964836 13.5304 4.60468 8.89995 10.3078 8.88867H10.3255C16.0205 8.88867 20.6413 13.5014 20.6509 19.1964M5.04434 19.1964C5.04434 22.1132 7.40869 24.4791 10.3271 24.4791C13.2455 24.4791 15.6098 22.1132 15.6098 19.1964C15.6098 16.2796 13.2438 13.9137 10.3271 13.9137C7.4103 13.9137 5.04434 16.2796 5.04434 19.1964Z" fill="#D7A18F"/>
<path d="M78.2402 9.36523V9.40227V29.0273H83.2298V9.36523H78.2402Z" fill="#2054D2"/>
<path d="M83.1604 19.1964C83.17 24.8995 78.5557 29.5299 72.8526 29.5412C67.1495 29.5509 62.5191 24.9365 62.5078 19.2335C62.4982 13.5304 67.1125 8.89995 72.8156 8.88867H72.8333C78.5283 8.88867 83.1491 13.5014 83.1588 19.1964M67.5522 19.1964C67.5522 22.1132 69.9182 24.4791 72.8349 24.4791C75.7517 24.4791 78.1177 22.1132 78.1177 19.1964C78.1177 16.2796 75.7517 13.9137 72.8349 13.9137C69.9214 13.9234 67.5635 16.2829 67.5522 19.1964Z" fill="#D7A18F"/>
</svg>
